<svg width="129" height="36" viewBox="0 0 129 36" fill="none" xmlns="http://www.w3.org/2000/svg">
    <path stroke="#000" d="M.5.5h93.853v30.229H.5zM103.222 30.782l-8.804 4.409V.5H128.5v30.229H103.328l-.106.053z"/>
    <path d="M103.678 9.343h2.331v11.841h-2.331V9.343zM118.147 19.645c-1.194 1.184-2.646 1.776-4.358 1.776-1.712 0-3.164-.592-4.358-1.776-1.183-1.196-1.774-2.656-1.774-4.381 0-1.726.591-3.18 1.774-4.365 1.194-1.195 2.646-1.793 4.358-1.793 1.712 0 3.164.598 4.358 1.793 1.194 1.184 1.79 2.64 1.79 4.365s-.596 3.185-1.79 4.38zm-7.078-1.59c.732.721 1.639 1.082 2.72 1.082 1.081 0 1.987-.36 2.719-1.082.732-.733 1.098-1.664 1.098-2.791 0-1.128-.366-2.059-1.098-2.792-.732-.733-1.638-1.1-2.719-1.1s-1.988.367-2.72 1.1c-.732.733-1.098 1.664-1.098 2.792 0 1.127.366 2.058 1.098 2.79zM9.529 9.07h5.973a3.328 3.328 0 0 1 3.33 3.21 3.291 3.291 0 0 1-.896 2.378l-.335.356.335.355a3.312 3.312 0 0 1-.154 4.69c-.62.58-1.429.897-2.278.897H11.99L9.53 23.422V9.07zm2.71 9.375h3.263a.806.806 0 0 0 .59-1.357l-1.95-2.076 1.95-2.074a.784.784 0 0 0 .219-.577.81.81 0 0 0-.81-.778H12.24v6.862zm11.015 2.51V12.13h-2.732v8.827h2.732v-.001zm-.025-9.61V9.107h-2.683v2.236h2.683zm7.83 9.61v-2.322h-.991c-.82 0-1.329-.503-1.329-1.313v-3.207h2.27V12.13h-2.35V9.406h-.311l-4.055 4.298v.409h1.712v3.758c0 1.93 1.15 3.085 3.08 3.085h1.974zm42.648-10.044V8.675h-2.683v2.236h2.683zM63.604 21.272c-2.75 0-4.67-1.945-4.67-4.728 0-2.78 1.92-4.72 4.67-4.72.791 0 1.55.211 2.195.61l.374.232V8.675h2.695v12.28H66.89l-.371-.843-.251.21a4.09 4.09 0 0 1-2.664.95zm.431-7.104c-1.333 0-2.339 1.02-2.339 2.376 0 1.355 1.006 2.375 2.339 2.375s2.339-1.02 2.339-2.375c0-1.356-1.006-2.377-2.339-2.377zm9.696 6.788V12.13h-2.732v8.827h2.732v-.001zm-27.03 0v-5.598c0-2.096-1.242-3.504-3.09-3.504a3.408 3.408 0 0 0-2.681 1.279l-.209.26-.186-.276c-.543-.804-1.446-1.264-2.479-1.264-.966 0-1.896.434-2.548 1.192l-.25.29-.553-1.205h-1.863v8.827h2.732v-4.865c0-1.286.582-2.024 1.596-2.024.477 0 1.276.219 1.276 1.686v5.202h2.648v-4.864c0-1.673.862-2.024 1.584-2.024.587 0 1.289.293 1.289 1.686v5.202h2.735zm33.28.306c-2.7 0-4.66-1.989-4.66-4.728 0-2.764 1.915-4.694 4.66-4.694 1.015 0 1.95.327 2.701.945l.246.203.397-.866h1.999v8.825h-2.083l-.34-.81-.254.204c-.745.602-1.667.921-2.667.921zm.429-7.082c-1.333 0-2.339 1.014-2.339 2.36 0 1.351 1.006 2.369 2.339 2.369s2.339-1.018 2.339-2.369c0-1.346-1.005-2.36-2.34-2.36zm-27.365 7.082c-2.757 0-4.836-2.031-4.836-4.725 0-2.73 2.034-4.71 4.836-4.71 2.8 0 4.844 1.935 4.857 4.603v.027c0 .192-.013.392-.037.605h-7.028l.057.291c.23 1.172.995 1.818 2.149 1.818.772 0 1.453-.325 1.827-.873h2.727c-.706 1.83-2.443 2.965-4.552 2.965zm-.002-7.41c-1.053 0-1.795.572-2.087 1.61l-.087.31h4.434l-.095-.315c-.316-1.036-1.083-1.606-2.165-1.606z" fill="#000"/>
</svg>
